<svg id="bb044e50-e372-4921-9c77-4ba087bcb7ed" data-name="Layer 1" xmlns="http://www.w3.org/2000/svg" viewBox="0 0 92.48 92.48"><defs><style>.f98e5107-656b-4fa8-b552-2e423ec14369{fill:#f8cc4f;}.b78359bf-bd76-486d-b546-395b75be86bc{isolation:isolate;}.b41c49de-1fb9-48d8-87cc-c491b56c9569{fill:#e46570;}</style></defs><g id="a0741ef9-7901-4491-8593-e4596581afb4" data-name="Group 13"><g id="afc5658f-df74-4d31-bee4-0222771b2ccc" data-name="Ellipse 2"><circle class="f98e5107-656b-4fa8-b552-2e423ec14369" cx="46.24" cy="46.24" r="45.49"/><path d="M960,586.24A46.24,46.24,0,1,1,1006.24,540,46.29,46.29,0,0,1,960,586.24Zm0-91A44.74,44.74,0,1,0,1004.74,540,44.79,44.79,0,0,0,960,495.26Z" transform="translate(-913.76 -493.76)"/></g><path d="M989.11,540.87h-3.67v1.5h1a26.4,26.4,0,0,1-52.58,0h1.37v-1.5h-4.3v1.5h1.42a27.9,27.9,0,0,0,55.6,0h1.2Z" transform="translate(-913.76 -493.76)"/><g id="a8d61668-bb18-4129-9b07-af691e85ed4d" data-name="Group 12"><g id="fd055acd-ad2e-43be-9854-68faeedc249a" data-name="Y"><g id="b5543479-f402-4774-96cf-c7583cd9d5a7" data-name="Y-2"><g id="fbfa7191-b97a-44ce-adcc-c6fc230099c3" data-name="Y-2-2" class="b78359bf-bd76-486d-b546-395b75be86bc"><g class="b78359bf-bd76-486d-b546-395b75be86bc"><path class="b41c49de-1fb9-48d8-87cc-c491b56c9569" d="M941.29,532.85a8.51,8.51,0,0,1-2.92-.53c.9-1.49,1.8-3.05,2.69-4.66-1.09-1-2.12-2.08-3.11-3.12l2.3-2.08c.65.7,1.45,1.46,2.39,2.31q.69-1.47,1.29-2.49a8.19,8.19,0,0,1,2.8.87Q943.79,528.85,941.29,532.85Z" transform="translate(-913.76 -493.76)"/></g></g></g></g><g id="ad2038b9-71c5-4ab9-bdb8-7da7e9baff35" data-name="K"><g id="f4715e1a-fac5-4b46-a957-f75bfe30a46e" data-name="K-2"><g id="e70bbc13-ce0a-4816-8e65-93a691f55f0a" data-name="K-2-2" class="b78359bf-bd76-486d-b546-395b75be86bc"><g class="b78359bf-bd76-486d-b546-395b75be86bc"><path class="b41c49de-1fb9-48d8-87cc-c491b56c9569" d="M979.41,527.33q.72.81,2.31,2.7a21,21,0,0,1-2.15,2.42c-.08,0-.82-.91-2.22-2.63l-.88,1.06c0,.53,0,1,0,1.48a22.92,22.92,0,0,1-3,.25c-.07-3.24-.06-6.42,0-9.53a15.44,15.44,0,0,1,3-.26c0,1.12,0,2.17,0,3.15l2.82-3.44a11.74,11.74,0,0,1,2.41,1.89C981.62,524.62,980.84,525.59,979.41,527.33Z" transform="translate(-913.76 -493.76)"/></g></g></g></g></g><g id="fe282abc-e500-4f29-b7e9-e518dae409e5" data-name="Path 3"><rect x="959.25" y="516.36" width="1.5" height="30.98" transform="translate(-1021.44 -215.94) rotate(-15.6)"/></g></g></svg>